<?xml version="1.0" encoding="UTF-8"?>
<svg width="900px" height="900px" viewBox="0 0 900 900" version="1.1" xmlns="http://www.w3.org/2000/svg" xmlns:xlink="http://www.w3.org/1999/xlink">
    <!-- Generator: Sketch 43.2 (39069) - http://www.bohemiancoding.com/sketch -->
    <title>super-glue-logo</title>
    <desc>Created with Sketch.</desc>
    <defs>
        <rect id="path-1" x="0" y="0" width="900" height="900"></rect>
    </defs>
    <g id="Page-1" stroke="none" stroke-width="1" fill="none" fill-rule="evenodd">
        <g id="super-glue-logo">
            <g id="Rectangle">
                <use fill="#FFFFFF" fill-rule="evenodd" xlink:href="#path-1"></use>
                <rect stroke="#979797" stroke-width="1" x="0.5" y="0.5" width="899" height="899"></rect>
            </g>
            <g transform="translate(276.000000, 26.000000)" fill="#000000">
                <path d="M138,5.3622 C138,2.6022 152.336,0.3622 170,0.3622 C187.664,0.3622 202,2.6022 202,5.3622 C202,8.1222 187.664,10.3622 170,10.3622 C152.336,10.3622 138,8.1222 138,5.3622 Z" id="path4203"></path>
                <path d="M204,11.3622 C205.26238,11.07423 210.08437,25.06674 214.788,48.49791 C219.71405,73.03709 223.66059,103.53608 225.61487,141.01396 C225.62517,141.21049 225.63527,141.40692 225.64537,141.60325 C227.44637,176.48442 227.25845,211.72577 226.78147,234.07713 C226.27729,257.703 225.35358,272.32942 223.99996,272.3622 C222.60217,272.3961 221.03149,257.81401 219.72655,234.19661 C216.79221,181.0897 219.06354,207.48288 215.65889,142.12115 C215.64869,141.92641 215.63849,141.73157 215.62829,141.53663 C213.60995,103.11477 210.97308,75.44846 207.812,49.62484 C204.94445,26.19909 202.57404,11.68748 203.99998,11.3622 L204,11.3622 Z" id="path4211"></path>
                <path d="M231,283.3622 C231.89898,282.85976 249.15151,308.64838 270.31036,354.15235 C291.92751,400.64192 315.51571,463.63882 330.78763,539.98993 C331.28469,542.47499 331.76897,544.95435 332.24064,547.42783 L332.24064,547.42785 C346.26644,621.03728 349.18292,688.30526 348.84422,736.99937 C348.50579,785.6552 345.08839,815.4107 344,815.3622 C342.38239,815.2901 343.32229,785.43788 341.86122,737.0802 C340.39813,688.65553 336.38175,622.07177 322.42215,549.30503 L322.42214,549.30501 C321.9534,546.85974 321.47338,544.40845 320.9819,541.95126 C305.84951,466.29519 283.68162,404.06232 263.84776,357.01658 C244.52619,311.18597 229.49777,284.20179 231,283.3622 Z" id="path4215"></path>
                <path d="M9,816.3622 C9.409,814.87229 27.02666,818.95216 55.67523,824.19205 C84.24793,829.41807 123.99936,835.74109 168.02781,836.72543 C169.2102,836.75183 170.38965,836.77433 171.56621,836.79293 C216.02011,837.49763 252.62363,832.22531 281.28609,825.9529 C308.89468,819.91112 325.42104,813.87554 326,815.3622 C326.40427,816.4003 310.72857,824.79184 282.99781,832.72986 C254.49145,840.88989 216.64138,847.46882 171.41193,846.78932 C170.21127,846.77122 169.00779,846.74832 167.80147,846.72072 C122.81103,845.68917 82.6635,838.16314 54.18631,831.11014 C25.64141,824.04037 8.68015,817.5274 9,816.36225 L9,816.3622 Z" id="path4219"></path>
                <path d="M138,10.3622 C139.40697,10.57601 138.39021,24.69057 136.27476,47.39345 C134.17787,69.89711 130.94792,101.58436 128.56355,135.92684 C126.03646,172.32498 125.24761,199.88347 124.83575,224.43673 C124.45521,247.12254 124.44378,261.26144 123,261.3622 C121.69082,261.4536 119.20642,247.46378 117.77598,224.59929 C116.30017,201.00957 116.12404,170.83466 118.58672,135.23541 C120.99592,100.40925 125.34045,68.97224 129.2596,46.45701 C133.18557,23.90256 136.68031,10.16165 138,10.3622 L138,10.3622 Z" id="path4223"></path>
                <path d="M112,283.3622 C112.91596,283.93644 105.83237,295.97587 95.05616,317.64078 C84.16439,339.538 70.03719,370.40178 57.14907,409.69186 C44.71461,447.59112 34.56953,489.64117 26.85651,537.93221 C26.77971,538.41309 26.70328,538.89373 26.62722,539.37413 C19.11246,586.85186 14.98416,633.82088 12.08092,672.55823 C5.80035,756.40379 10.4305,702.96474 5.26575,770.20969 C3.44907,793.86288 1.93066,807.40763 1,807.3622 C0.08599,807.3176 -0.1244,793.69303 0.2082,769.98021 C0.51137,748.36518 1.39863,710.34676 3.44505,672.00455 C5.52845,632.93995 9.15256,585.92028 16.75005,537.81252 C16.82665,537.32726 16.90372,536.84174 16.98121,536.35597 C24.74681,487.67172 35.53459,444.94022 48.89088,406.88754 C62.7573,367.3887 78.25093,336.52998 90.54449,315.21955 C102.75075,294.06046 111.33311,282.94411 112,283.3622 L112,283.3622 Z" id="path4227"></path>
                <path d="M105,314.3622 C104.56571,311.93885 132.50301,303.47423 168.73011,302.21782 C173.87512,302.03939 178.86263,302.01876 183.67395,302.13892 L183.67395,302.13892 C212.77297,302.87437 233.37131,309.17893 233,311.36219 C232.58558,313.79896 211.54239,311.55957 183.60301,311.87468 L183.60301,311.87468 C178.9141,311.92588 174.0961,312.03359 169.0764,312.20751 C134.09405,313.41955 105.53274,317.33486 105,314.36219 L105,314.3622 Z" id="path4231"></path>
                <path d="M132,231.3622 C131.70695,230.04431 135.56789,227.80979 142.26673,225.66598 C148.94734,223.52801 158.5033,221.48877 169.29953,221.00016 C170.68314,220.93756 172.05106,220.90196 173.40188,220.89252 L173.40188,220.89252 C183.53134,220.80132 191.9448,222.30135 198.20237,224.52316 C204.27947,226.68089 207.40253,229.18429 207,230.3622 C206.57071,231.61843 202.74333,231.38815 196.85967,231.08831 C190.01207,230.73935 183.77549,230.52603 173.5946,230.83628 L173.5946,230.83628 C172.32875,230.87758 171.04857,230.92698 169.74734,230.9848 C149.52222,231.88312 132.66163,234.33761 132,231.3622 L132,231.3622 Z" id="path4235"></path>
                <path d="M17,754.3622 C17.27072,752.88058 34.70614,755.25929 62.86306,757.66574 C92.22941,760.17554 128.72969,762.24837 173.01308,761.17147 C216.78391,760.10703 254.31173,756.29562 283.15407,752.86536 C311.30348,749.51752 328.7057,746.90174 329,748.3622 C329.2501,749.60332 312.32565,754.68495 284.21406,759.86169 C255.70132,765.1123 217.30182,770.10402 173.25524,771.16713 C128.86639,772.2385 91.02171,769.02606 62.03721,764.67915 C33.78983,760.44278 16.77509,755.59309 17,754.3622 Z" id="path4239"></path>
                <path d="M23,666.3622 C23.21639,665.22151 34.07013,666.408 52.33509,668.54003 C69.98702,670.60051 96.8772,673.81144 126.13598,675.47831 L126.13599,675.47831 C140.90059,676.32014 156.59947,676.76978 172.98064,676.54808 C182.83689,676.41469 192.40467,676.04555 201.71056,675.46004 C223.77687,674.07715 246.00716,671.26595 263.15359,669.05874 C299.25869,664.40463 322.76232,662.31508 323,664.3622 C323.13695,665.54179 300.13766,670.49012 264.37073,676.93628 C247.02726,680.06431 225.15385,683.52221 202.38998,685.25174 C192.9122,685.96956 183.15228,686.41003 173.11622,686.54639 C156.43333,686.77307 140.45588,686.13938 125.49049,684.95653 L125.49048,684.95653 C95.50684,682.58497 69.2043,678.10755 51.38462,674.38194 C33.27762,670.59626 22.80403,667.39525 23,666.3622 Z" id="path4243"></path>
                <g id="text4247" transform="translate(58.000000, 699.000000)" fill-rule="nonzero">
                    <path d="M19.40625,3.15906 L19.40625,7.00671 C17.9088567,6.29057 16.4960967,5.75671667 15.16797,5.40515 C13.8398433,5.05359 12.55729,4.87781 11.32031,4.87781 C9.17187667,4.87781 7.51172,5.29447667 6.33984,6.12781 C5.18098667,6.96114333 4.60156,8.14604 4.60156,9.6825 C4.60156,10.97156 4.98567667,11.94812 5.75391,12.61218 C6.53515667,13.2632267 8.00651,13.79057 10.16797,14.19421 L12.55078,14.6825 C15.4934867,15.2423933 17.6614567,16.2319767 19.05469,17.65125 C20.4609367,19.0574967 21.16406,20.9455167 21.16406,23.31531 C21.16406,26.14083 20.21354,28.2827567 18.3125,29.74109 C16.42448,31.1994233 13.6510433,31.92859 9.99219,31.92859 C8.61198333,31.92859 7.14063,31.77234 5.57813,31.45984 C4.02865,31.14734 2.42057667,30.6851 0.75391,30.07312 L0.75391,26.01062 C2.35547,26.90906 3.92448,27.5861433 5.46094,28.04187 C6.9974,28.4975967 8.50781667,28.72546 9.99219,28.72546 C12.24479,28.72546 13.98307,28.2827533 15.20703,27.39734 C16.43099,26.51192 17.04297,25.2489 17.04297,23.60828 C17.04297,22.1759867 16.60026,21.0561933 15.71484,20.2489 C14.8424467,19.4416067 13.4036467,18.83614 11.39844,18.4325 L8.99609,17.96375 C6.05338333,17.37781 3.92448,16.45984 2.60938,15.20984 C1.29427333,13.95984 0.63672,12.22156 0.63672,9.995 C0.63672,7.41687333 1.54166667,5.38562333 3.35156,3.90125 C5.17448,2.41687 7.68099,1.67468 10.87109,1.67468 C12.2382833,1.67468 13.6315133,1.79838 15.05078,2.04578 C16.4700533,2.29317333 17.9218767,2.66426667 19.40625,3.15906 L19.40625,3.15906 Z" id="path4378"></path>
                    <path d="M26.86719,22.72937 L26.86719,9.48718 L30.46094,9.48718 L30.46094,22.59265 C30.46094,24.6629633 30.8645867,26.2189533 31.67188,27.26062 C32.4791667,28.2892667 33.6901033,28.80359 35.30469,28.80359 C37.24479,28.80359 38.7747367,28.1851 39.89453,26.94812 C41.0273433,25.71114 41.59375,24.0249433 41.59375,21.88953 L41.59375,9.48718 L45.1875,9.48718 L45.1875,31.36218 L41.59375,31.36218 L41.59375,28.00281 C40.7213567,29.3309367 39.7057333,30.32052 38.54688,30.97156 C37.4010467,31.60958 36.06641,31.92859 34.54297,31.92859 C32.02995,31.92859 30.1223967,31.14734 28.82031,29.58484 C27.51823,28.02234 26.86719,25.7371833 26.86719,22.72937 L26.86719,22.72937 Z" id="path4380"></path>
                    <path d="M56.10547,28.08093 L56.10547,39.6825 L52.49219,39.6825 L52.49219,9.48718 L56.10547,9.48718 L56.10547,12.8075 C56.8606767,11.5054133 57.8111967,10.54187 58.95703,9.91687 C60.1158833,9.27885 61.4960933,8.95984 63.09766,8.95984 C65.7539067,8.95984 67.9088533,10.0145267 69.5625,12.1239 C71.2291667,14.2332733 72.0625,17.00671 72.0625,20.44421 C72.0625,23.88171 71.2291667,26.65515 69.5625,28.76453 C67.9088533,30.8739033 65.7539067,31.92859 63.09766,31.92859 C61.4960933,31.92859 60.1158833,31.61609 58.95703,30.99109 C57.8111967,30.35307 56.8606767,29.3830167 56.10547,28.08093 L56.10547,28.08093 Z M68.33203,20.44421 C68.33203,17.8009833 67.7851567,15.7306733 66.69141,14.23328 C65.6106767,12.72286 64.11979,11.96765 62.21875,11.96765 C60.31771,11.96765 58.8203133,12.72286 57.72656,14.23328 C56.6458333,15.7306733 56.10547,17.8009833 56.10547,20.44421 C56.10547,23.0874433 56.6458333,25.1642667 57.72656,26.67468 C58.8203133,28.17208 60.31771,28.92078 62.21875,28.92078 C64.11979,28.92078 65.6106767,28.17208 66.69141,26.67468 C67.7851567,25.1642667 68.33203,23.0874433 68.33203,20.44421 Z" id="path4382"></path>
                    <path d="M96.73047,19.52625 L96.73047,21.28406 L80.20703,21.28406 C80.3632833,23.75802 81.10547,25.64604 82.43359,26.94812 C83.7747367,28.23718 85.6367167,28.88171 88.01953,28.88171 C89.3997367,28.88171 90.7343733,28.71244 92.02344,28.3739 C93.32552,28.03536 94.6145833,27.5275467 95.89063,26.85046 L95.89063,30.2489 C94.6015633,30.7957733 93.2799467,31.21244 91.92578,31.4989 C90.5716133,31.78536 89.1979167,31.92859 87.80469,31.92859 C84.3151033,31.92859 81.5481767,30.9129633 79.50391,28.88171 C77.4726567,26.8504633 76.45703,24.10307 76.45703,20.63953 C76.45703,17.0587967 77.4205733,14.2202533 79.34766,12.1239 C81.28776,10.0145267 83.8984367,8.95984 87.17969,8.95984 C90.1223967,8.95984 92.4466133,9.91036 94.15234,11.8114 C95.8710933,13.69942 96.73047,16.2710367 96.73047,19.52625 Z M93.13672,18.47156 C93.1106533,16.5054133 92.5572667,14.9364033 91.47656,13.76453 C90.4088533,12.59265 88.9895833,12.00671 87.21875,12.00671 C85.2135433,12.00671 83.60547,12.5731167 82.39453,13.70593 C81.1966167,14.8387433 80.5065133,16.4337967 80.32422,18.49109 L93.13672,18.47159 L93.13672,18.47156 Z" id="path4384"></path>
                    <path d="M115.22656,12.84656 C114.822913,12.6121867 114.380207,12.4429167 113.89844,12.33875 C113.429687,12.2215567 112.908853,12.16296 112.33594,12.16296 C110.304687,12.16296 108.742187,12.8270233 107.64844,14.15515 C106.567707,15.4702567 106.02734,17.36479 106.02734,19.83875 L106.02734,31.36218 L102.41406,31.36218 L102.41406,9.48718 L106.02734,9.48718 L106.02734,12.88562 C106.782553,11.5574933 107.765627,10.57442 108.97656,9.9364 C110.1875,9.28536 111.658857,8.95984 113.39063,8.95984 C113.638023,8.95984 113.91146,8.97937333 114.21094,9.01844 C114.51042,9.04450667 114.84245,9.09008 115.20703,9.15516 L115.22653,12.84657 L115.22656,12.84656 Z" id="path4386"></path>
                    <path d="M151.80859,27.20203 L151.80859,19.37 L145.36328,19.37 L145.36328,16.12781 L155.71484,16.12781 L155.71484,28.64734 C154.191407,29.7280667 152.51172,30.54838 150.67578,31.10828 C148.839847,31.6551533 146.880213,31.92859 144.79688,31.92859 C140.239587,31.92859 136.671877,30.6004633 134.09375,27.94421 C131.528643,25.2749433 130.24609,21.5640067 130.24609,16.8114 C130.24609,12.0457733 131.528643,8.33483667 134.09375,5.67859 C136.671877,3.00931667 140.239587,1.67468 144.79688,1.67468 C146.69792,1.67468 148.501303,1.90905667 150.20703,2.37781 C151.925783,2.84655667 153.507817,3.53666 154.95313,4.44812 L154.95313,8.64734 C153.494797,7.41036 151.945317,6.47937 150.30469,5.85437 C148.664063,5.22937 146.938803,4.91687 145.12891,4.91687 C141.561197,4.91687 138.878903,5.91296333 137.08203,7.90515 C135.298177,9.89733667 134.40625,12.8660867 134.40625,16.8114 C134.40625,20.7436933 135.298177,23.7059333 137.08203,25.69812 C138.878903,27.6903067 141.561197,28.6864 145.12891,28.6864 C146.522137,28.6864 147.765627,28.5692133 148.85938,28.33484 C149.953127,28.0874467 150.936197,27.7098433 151.80859,27.20203 L151.80859,27.20203 Z" id="path4388"></path>
                    <polygon id="path4390" points="162.78516 0.97156 166.37891 0.97156 166.37891 31.36218 162.78516 31.36218"></polygon>
                    <path d="M173.50781,22.72937 L173.50781,9.48718 L177.10156,9.48718 L177.10156,22.59265 C177.10156,24.6629633 177.505207,26.2189533 178.3125,27.26062 C179.119793,28.2892667 180.33073,28.80359 181.94531,28.80359 C183.885417,28.80359 185.415367,28.1851 186.53516,26.94812 C187.667973,25.71114 188.23438,24.0249433 188.23438,21.88953 L188.23438,9.48718 L191.82813,9.48718 L191.82813,31.36218 L188.23438,31.36218 L188.23438,28.00281 C187.36198,29.3309367 186.346353,30.32052 185.1875,30.97156 C184.041667,31.60958 182.70703,31.92859 181.18359,31.92859 C178.67057,31.92859 176.76302,31.14734 175.46094,29.58484 C174.158853,28.02234 173.50781,25.7371833 173.50781,22.72937 L173.50781,22.72937 Z" id="path4392"></path>
                    <path d="M217.98047,19.52625 L217.98047,21.28406 L201.45703,21.28406 C201.613283,23.75802 202.35547,25.64604 203.68359,26.94812 C205.024737,28.23718 206.886717,28.88171 209.26953,28.88171 C210.649737,28.88171 211.984373,28.71244 213.27344,28.3739 C214.57552,28.03536 215.864583,27.5275467 217.14063,26.85046 L217.14063,30.2489 C215.851563,30.7957733 214.529947,31.21244 213.17578,31.4989 C211.821613,31.78536 210.447917,31.92859 209.05469,31.92859 C205.565103,31.92859 202.798177,30.9129633 200.75391,28.88171 C198.722657,26.8504633 197.70703,24.10307 197.70703,20.63953 C197.70703,17.0587967 198.670573,14.2202533 200.59766,12.1239 C202.53776,10.0145267 205.148437,8.95984 208.42969,8.95984 C211.372397,8.95984 213.696613,9.91036 215.40234,11.8114 C217.121093,13.69942 217.98047,16.2710367 217.98047,19.52625 L217.98047,19.52625 Z M214.38672,18.47156 C214.360653,16.5054133 213.807267,14.9364033 212.72656,13.76453 C211.658853,12.59265 210.239583,12.00671 208.46875,12.00671 C206.463543,12.00671 204.85547,12.5731167 203.64453,13.70593 C202.446617,14.8387433 201.756513,16.4337967 201.57422,18.49109 L214.38672,18.47159 L214.38672,18.47156 Z" id="path4394"></path>
                </g>
                <g id="g4355" transform="translate(65.037992, 381.719961)" fill-rule="nonzero">
                    <g id="g4324">
                        <g id="use4326" transform="translate(38.104243, 19.052121)" stroke-width="10.5519439" stroke="#FFFFFF">
                            <g id="b">
                                <path d="M133.36485,61.5530076 C133.36485,95.547795 103.510111,123.106015 66.6824249,123.106015 C29.8547385,123.106015 1.04133434e-14,95.547795 0,61.5530076 C1.04133434e-14,27.5582202 29.8547385,0 66.6824249,0 C103.510111,1.04133434e-14 133.36485,27.5582202 133.36485,61.5530076 Z" id="ellipse4337"></path>
                                <path d="M16.1210258,46.1647557 L117.243824,46.1647557 C126.174872,46.1647557 133.36485,53.3547332 133.36485,62.2857815 L133.36485,163.40858 C133.36485,172.339628 126.174872,179.529606 117.243824,179.529606 L16.1210258,179.529606 C7.18997751,179.529606 0,172.339628 0,163.40858 L0,62.2857815 C0,53.3547332 7.18997751,46.1647557 16.1210258,46.1647557 Z" id="rect4339"></path>
                            </g>
                        </g>
                        <g id="use4328" transform="translate(132.998463, 124.571563) scale(-1, 1) translate(-132.998463, -124.571563) translate(56.423590, 0.000000)" stroke="#FFFFFF">
                            <g id="a">
                                <path d="M133.201088,-1.22376936 C135.839807,-1.22376936 137.964118,0.90054218 137.964118,3.539261 L137.964118,57.0317558 C137.964118,59.6704746 135.839807,61.7947862 133.201088,61.7947862 C130.562369,61.7947862 128.438057,59.6704746 128.438057,57.0317558 L128.438057,3.539261 C128.438057,0.90054218 130.562369,-1.22376936 133.201088,-1.22376936 Z" id="rect4331" stroke-width="5.27597195" transform="translate(133.201088, 30.285508) rotate(29.000000) translate(-133.201088, -30.285508) "></path>
                                <path d="M17.5865736,80.605129 C27.3295354,80.605129 35.1731472,88.4487408 35.1731472,98.1917026 L35.1731472,160.477484 C35.1731472,170.220446 27.3295354,178.064058 17.5865736,178.064058 C7.84361183,178.064058 0,170.220446 0,160.477484 L0,98.1917026 C0,88.4487408 7.84361183,80.605129 17.5865736,80.605129 Z" id="c" stroke-width="5.27597194"></path>
                                <g id="use4334" transform="translate(62.285781, 151.684197)" stroke-width="5.27597194">
                                    <path d="M17.5865736,0 C27.3295354,0 35.1731472,7.84361183 35.1731472,17.5865736 L35.1731472,79.8723551 C35.1731472,89.6153169 27.3295354,97.4589287 17.5865736,97.4589287 C7.84361183,97.4589287 0,89.6153169 0,79.8723551 L0,17.5865736 C0,7.84361183 7.84361183,0 17.5865736,0 Z" id="c"></path>
                                </g>
                            </g>
                        </g>
                        <g id="a" stroke="#FFFFFF">
                            <path d="M133.201088,-1.22376936 C135.839807,-1.22376936 137.964118,0.90054218 137.964118,3.539261 L137.964118,57.0317558 C137.964118,59.6704746 135.839807,61.7947862 133.201088,61.7947862 C130.562369,61.7947862 128.438057,59.6704746 128.438057,57.0317558 L128.438057,3.539261 C128.438057,0.90054218 130.562369,-1.22376936 133.201088,-1.22376936 Z" id="rect4331" stroke-width="5.27597195" transform="translate(133.201088, 30.285508) rotate(29.000000) translate(-133.201088, -30.285508) "></path>
                            <path d="M17.5865736,80.605129 C27.3295354,80.605129 35.1731472,88.4487408 35.1731472,98.1917026 L35.1731472,160.477484 C35.1731472,170.220446 27.3295354,178.064058 17.5865736,178.064058 C7.84361183,178.064058 0,170.220446 0,160.477484 L0,98.1917026 C0,88.4487408 7.84361183,80.605129 17.5865736,80.605129 Z" id="c" stroke-width="5.27597194"></path>
                            <g id="use4334" transform="translate(62.285781, 151.684197)" stroke-width="5.27597194">
                                <path d="M17.5865736,0 C27.3295354,0 35.1731472,7.84361183 35.1731472,17.5865736 L35.1731472,79.8723551 C35.1731472,89.6153169 27.3295354,97.4589287 17.5865736,97.4589287 C7.84361183,97.4589287 0,89.6153169 0,79.8723551 L0,17.5865736 C0,7.84361183 7.84361183,0 17.5865736,0 Z" id="c"></path>
                            </g>
                        </g>
                        <g id="b" transform="translate(38.104243, 19.052121)">
                            <path d="M133.36485,61.5530076 C133.36485,95.547795 103.510111,123.106015 66.6824249,123.106015 C29.8547385,123.106015 1.04133434e-14,95.547795 0,61.5530076 C1.04133434e-14,27.5582202 29.8547385,0 66.6824249,0 C103.510111,1.04133434e-14 133.36485,27.5582202 133.36485,61.5530076 Z" id="ellipse4337"></path>
                            <path d="M16.1210258,46.1647557 L117.243824,46.1647557 C126.174872,46.1647557 133.36485,53.3547332 133.36485,62.2857815 L133.36485,163.40858 C133.36485,172.339628 126.174872,179.529606 117.243824,179.529606 L16.1210258,179.529606 C7.18997751,179.529606 0,172.339628 0,163.40858 L0,62.2857815 C0,53.3547332 7.18997751,46.1647557 16.1210258,46.1647557 Z" id="rect4339"></path>
                        </g>
                    </g>
                    <g id="g4341" transform="translate(35.173147, 47.630304)" stroke="#FFFFFF" stroke-width="5.27597194">
                        <path d="M0,35.5395342 L139.227041,35.5395342" id="path4343"></path>
                        <path d="M41.7681123,2.9310956 C41.7681123,4.549895 40.4558161,5.8621912 38.8370167,5.8621912 C37.2182173,5.8621912 35.9059211,4.549895 35.9059211,2.9310956 C35.9059211,1.3122962 37.2182173,6.50833964e-16 38.8370167,3.25416982e-16 C40.4558161,3.25416982e-16 41.7681123,1.3122962 41.7681123,2.9310956 L41.7681123,2.9310956 Z" id="circle4345"></path>
                        <path d="M103.32112,2.9310956 C103.32112,4.549895 102.008824,5.8621912 100.390024,5.8621912 C98.7712249,5.8621912 97.4589287,4.549895 97.4589287,2.9310956 C97.4589287,1.3122962 98.7712249,6.50833964e-16 100.390024,3.25416982e-16 C102.008824,3.25416982e-16 103.32112,1.3122962 103.32112,2.9310956 L103.32112,2.9310956 Z" id="circle4347"></path>
                    </g>
                </g>
            </g>
        </g>
    </g>
</svg>